<svg width="370" height="180" viewBox="0 0 370 180" fill="none" xmlns="http://www.w3.org/2000/svg">
<rect width="370" height="180" rx="15" fill="#003F76"/>
<path d="M120.543 26.7475V25.0909H129.247V26.7475H125.875V36H123.915V26.7475H120.543ZM133.275 36.1598C132.455 36.1598 131.746 35.9893 131.15 35.6484C130.557 35.304 130.1 34.8175 129.781 34.1889C129.461 33.5568 129.301 32.8129 129.301 31.957C129.301 31.1154 129.461 30.3768 129.781 29.7411C130.104 29.1019 130.555 28.6048 131.134 28.2496C131.713 27.891 132.393 27.7116 133.174 27.7116C133.678 27.7116 134.154 27.7933 134.601 27.9567C135.052 28.1165 135.45 28.3651 135.795 28.7024C136.143 29.0398 136.416 29.4695 136.615 29.9915C136.814 30.5099 136.913 31.1278 136.913 31.8452V32.4364H130.207V31.1367H135.065C135.061 30.7674 134.981 30.4389 134.825 30.1513C134.669 29.8601 134.45 29.631 134.17 29.4641C133.893 29.2972 133.57 29.2138 133.2 29.2138C132.806 29.2138 132.46 29.3097 132.162 29.5014C131.863 29.6896 131.631 29.9382 131.464 30.2472C131.301 30.5526 131.217 30.8881 131.214 31.2539V32.3885C131.214 32.8643 131.301 33.2727 131.475 33.6136C131.649 33.951 131.892 34.2102 132.204 34.3913C132.517 34.5689 132.883 34.6577 133.302 34.6577C133.582 34.6577 133.836 34.6186 134.063 34.5405C134.291 34.4588 134.488 34.3398 134.655 34.1836C134.822 34.0273 134.948 33.8338 135.033 33.603L136.833 33.8054C136.72 34.2812 136.503 34.6967 136.183 35.0518C135.867 35.4034 135.463 35.6768 134.969 35.8722C134.475 36.0639 133.911 36.1598 133.275 36.1598ZM142.113 36.1598C141.297 36.1598 140.595 35.9805 140.009 35.6218C139.427 35.2631 138.978 34.7678 138.662 34.1357C138.349 33.5 138.193 32.7685 138.193 31.9411C138.193 31.1101 138.353 30.3768 138.672 29.7411C138.992 29.1019 139.443 28.6048 140.025 28.2496C140.611 27.891 141.304 27.7116 142.103 27.7116C142.767 27.7116 143.354 27.8342 143.866 28.0792C144.381 28.3207 144.791 28.6634 145.096 29.1072C145.402 29.5476 145.576 30.0625 145.618 30.652H143.775C143.701 30.2578 143.523 29.9293 143.243 29.6665C142.966 29.4002 142.595 29.267 142.129 29.267C141.735 29.267 141.389 29.3736 141.091 29.5866C140.792 29.7962 140.56 30.098 140.393 30.4922C140.229 30.8864 140.148 31.3587 140.148 31.9091C140.148 32.4666 140.229 32.946 140.393 33.3473C140.556 33.745 140.785 34.0522 141.08 34.2688C141.378 34.4819 141.728 34.5884 142.129 34.5884C142.413 34.5884 142.667 34.5352 142.891 34.4286C143.118 34.3185 143.308 34.1605 143.461 33.9545C143.614 33.7486 143.718 33.4982 143.775 33.2035H145.618C145.572 33.7823 145.402 34.2955 145.107 34.7429C144.812 35.1868 144.411 35.5348 143.903 35.7869C143.395 36.0355 142.799 36.1598 142.113 36.1598ZM146.608 29.4002V27.8182H153.767V29.4002H151.119V36H149.255V29.4002H146.608ZM158.534 36.1598C157.735 36.1598 157.043 35.984 156.457 35.6325C155.871 35.2809 155.416 34.7891 155.093 34.157C154.774 33.5249 154.614 32.7862 154.614 31.9411C154.614 31.0959 154.774 30.3555 155.093 29.7198C155.416 29.0842 155.871 28.5906 156.457 28.239C157.043 27.8874 157.735 27.7116 158.534 27.7116C159.333 27.7116 160.026 27.8874 160.612 28.239C161.198 28.5906 161.65 29.0842 161.97 29.7198C162.293 30.3555 162.455 31.0959 162.455 31.9411C162.455 32.7862 162.293 33.5249 161.97 34.157C161.65 34.7891 161.198 35.2809 160.612 35.6325C160.026 35.984 159.333 36.1598 158.534 36.1598ZM158.545 34.6151C158.978 34.6151 159.34 34.4961 159.632 34.2582C159.923 34.0167 160.139 33.6935 160.281 33.2887C160.427 32.8839 160.5 32.4329 160.5 31.9357C160.5 31.435 160.427 30.9822 160.281 30.5774C160.139 30.169 159.923 29.8441 159.632 29.6026C159.34 29.3612 158.978 29.2404 158.545 29.2404C158.101 29.2404 157.732 29.3612 157.437 29.6026C157.146 29.8441 156.927 30.169 156.782 30.5774C156.64 30.9822 156.569 31.435 156.569 31.9357C156.569 32.4329 156.64 32.8839 156.782 33.2887C156.927 33.6935 157.146 34.0167 157.437 34.2582C157.732 34.4961 158.101 34.6151 158.545 34.6151ZM164.091 36V27.8182H167.527C168.497 27.8182 169.262 28.0117 169.823 28.3988C170.388 28.7859 170.67 29.3256 170.67 30.0181C170.67 30.4762 170.51 30.8509 170.19 31.142C169.874 31.4297 169.443 31.6232 168.896 31.7227C169.326 31.7582 169.702 31.8665 170.025 32.0476C170.352 32.2287 170.608 32.4666 170.792 32.7614C170.977 33.0561 171.069 33.3952 171.069 33.7788C171.069 34.2298 170.95 34.6222 170.712 34.956C170.478 35.2862 170.135 35.5437 169.684 35.7283C169.237 35.9094 168.694 36 168.054 36H164.091ZM165.897 34.4819H168.054C168.41 34.4819 168.688 34.3984 168.891 34.2315C169.093 34.0611 169.194 33.8303 169.194 33.5391C169.194 33.2017 169.093 32.9371 168.891 32.7454C168.688 32.5501 168.41 32.4524 168.054 32.4524H165.897V34.4819ZM165.897 31.206H167.564C167.827 31.206 168.053 31.1687 168.241 31.0941C168.429 31.016 168.573 30.9077 168.672 30.7692C168.772 30.6271 168.821 30.4585 168.821 30.2631C168.821 29.9826 168.706 29.7624 168.475 29.6026C168.248 29.4428 167.932 29.3629 167.527 29.3629H165.897V31.206ZM173.966 30.4815H176.379C177.423 30.4815 178.231 30.7354 178.802 31.2433C179.374 31.7511 179.662 32.4169 179.665 33.2408C179.662 33.777 179.53 34.2528 179.271 34.6683C179.015 35.0838 178.643 35.4105 178.153 35.6484C177.666 35.8828 177.075 36 176.379 36H172.661V27.8182H174.52V34.418H176.379C176.798 34.418 177.142 34.3114 177.412 34.0984C177.682 33.8817 177.817 33.6048 177.817 33.2674C177.817 32.9123 177.682 32.6229 177.412 32.3991C177.142 32.1754 176.798 32.0636 176.379 32.0636H173.966V30.4815ZM180.683 36V27.8182H182.611V36H180.683ZM186.458 33.3899L189.734 27.8182H191.716V36H189.851V30.4229L186.586 36H184.599V27.8182H186.458V33.3899ZM189.207 25.0057H190.65C190.65 25.6271 190.425 26.1314 189.974 26.5185C189.526 26.902 188.919 27.0938 188.152 27.0938C187.392 27.0938 186.787 26.902 186.336 26.5185C185.888 26.1314 185.666 25.6271 185.67 25.0057H187.103C187.103 25.2614 187.181 25.4904 187.337 25.6928C187.497 25.8917 187.769 25.9911 188.152 25.9911C188.528 25.9911 188.797 25.8917 188.956 25.6928C189.12 25.494 189.203 25.2649 189.207 25.0057ZM203.974 24.7926L204.645 26.0391C204.407 26.245 204.141 26.3942 203.846 26.4865C203.551 26.5788 203.205 26.6392 202.807 26.6676C202.413 26.6925 201.944 26.7102 201.401 26.7209C200.79 26.7351 200.291 26.8505 199.904 27.0671C199.517 27.2837 199.221 27.6122 199.015 28.0526C198.809 28.4893 198.674 29.0469 198.61 29.7251H198.7C198.956 29.2244 199.315 28.8427 199.776 28.5799C200.238 28.3171 200.779 28.1857 201.401 28.1857C202.079 28.1857 202.678 28.3384 203.196 28.6438C203.718 28.9457 204.125 29.3842 204.416 29.9595C204.711 30.5348 204.858 31.2308 204.858 32.0476C204.858 32.8892 204.7 33.619 204.384 34.2369C204.068 34.8512 203.619 35.3253 203.036 35.6591C202.457 35.9929 201.77 36.1598 200.975 36.1598C200.183 36.1598 199.494 35.9876 198.908 35.6431C198.326 35.2951 197.875 34.782 197.555 34.1037C197.239 33.4219 197.081 32.582 197.081 31.5842V30.8491C197.081 28.9244 197.44 27.4879 198.157 26.5398C198.874 25.5916 199.938 25.1087 201.348 25.0909C201.767 25.0838 202.141 25.082 202.472 25.0856C202.805 25.0891 203.097 25.0732 203.345 25.0376C203.594 25.0021 203.803 24.9205 203.974 24.7926ZM200.985 34.6151C201.38 34.6151 201.721 34.5138 202.008 34.3114C202.296 34.1055 202.516 33.8143 202.669 33.4379C202.825 33.0614 202.903 32.6158 202.903 32.1009C202.903 31.593 202.825 31.1616 202.669 30.8065C202.512 30.4478 202.29 30.1744 202.003 29.9862C201.715 29.7979 201.373 29.7038 200.975 29.7038C200.676 29.7038 200.408 29.7571 200.17 29.8636C199.933 29.9702 199.73 30.1264 199.563 30.3324C199.396 30.5384 199.268 30.7887 199.18 31.0835C199.091 31.3782 199.043 31.7173 199.036 32.1009C199.036 32.8714 199.21 33.484 199.558 33.9386C199.906 34.3896 200.382 34.6151 200.985 34.6151ZM208.853 36.1651C208.335 36.1651 207.868 36.0728 207.452 35.8881C207.04 35.6999 206.713 35.4229 206.472 35.0572C206.234 34.6914 206.115 34.2404 206.115 33.7042C206.115 33.2425 206.2 32.8608 206.371 32.5589C206.541 32.2571 206.774 32.0156 207.069 31.8345C207.363 31.6534 207.695 31.5167 208.065 31.4244C208.438 31.3285 208.823 31.2592 209.221 31.2166C209.7 31.1669 210.089 31.1225 210.387 31.0835C210.685 31.0408 210.902 30.9769 211.037 30.8917C211.175 30.8029 211.245 30.6662 211.245 30.4815V30.4496C211.245 30.0483 211.126 29.7376 210.888 29.5174C210.65 29.2972 210.307 29.1871 209.86 29.1871C209.387 29.1871 209.013 29.2901 208.736 29.4961C208.462 29.7021 208.278 29.9453 208.182 30.2259L206.381 29.9702C206.523 29.473 206.758 29.0575 207.085 28.7237C207.411 28.3864 207.811 28.1342 208.283 27.9673C208.755 27.7969 209.277 27.7116 209.849 27.7116C210.243 27.7116 210.636 27.7578 211.026 27.8501C211.417 27.9425 211.774 28.0952 212.097 28.3082C212.42 28.5178 212.679 28.8036 212.875 29.1658C213.074 29.5281 213.173 29.9808 213.173 30.5241V36H211.319V34.8761H211.255C211.138 35.1033 210.973 35.3164 210.76 35.5153C210.55 35.7106 210.286 35.8686 209.966 35.9893C209.65 36.1065 209.279 36.1651 208.853 36.1651ZM209.354 34.7482C209.741 34.7482 210.076 34.6719 210.36 34.5192C210.645 34.3629 210.863 34.157 211.016 33.9013C211.172 33.6456 211.25 33.3668 211.25 33.065V32.1009C211.19 32.1506 211.087 32.1967 210.941 32.2393C210.799 32.282 210.639 32.3192 210.462 32.3512C210.284 32.3832 210.108 32.4116 209.934 32.4364C209.76 32.4613 209.609 32.4826 209.482 32.5004C209.194 32.5394 208.936 32.6033 208.709 32.6921C208.482 32.7809 208.303 32.9052 208.171 33.065C208.04 33.2212 207.974 33.4237 207.974 33.6722C207.974 34.0273 208.104 34.2955 208.363 34.4766C208.622 34.6577 208.952 34.7482 209.354 34.7482ZM220.732 31.1101V32.6921H216.374V31.1101H220.732ZM216.971 27.8182V36H215.112V27.8182H216.971ZM221.994 27.8182V36H220.14V27.8182H221.994ZM229.565 31.1101V32.6921H225.207V31.1101H229.565ZM225.804 27.8182V36H223.945V27.8182H225.804ZM230.827 27.8182V36H228.973V27.8182H230.827ZM236.4 36.1598C235.58 36.1598 234.871 35.9893 234.275 35.6484C233.682 35.304 233.225 34.8175 232.906 34.1889C232.586 33.5568 232.426 32.8129 232.426 31.957C232.426 31.1154 232.586 30.3768 232.906 29.7411C233.229 29.1019 233.68 28.6048 234.259 28.2496C234.838 27.891 235.518 27.7116 236.299 27.7116C236.803 27.7116 237.279 27.7933 237.726 27.9567C238.177 28.1165 238.575 28.3651 238.92 28.7024C239.268 29.0398 239.541 29.4695 239.74 29.9915C239.939 30.5099 240.038 31.1278 240.038 31.8452V32.4364H233.332V31.1367H238.19C238.186 30.7674 238.106 30.4389 237.95 30.1513C237.794 29.8601 237.575 29.631 237.295 29.4641C237.018 29.2972 236.695 29.2138 236.325 29.2138C235.931 29.2138 235.585 29.3097 235.287 29.5014C234.988 29.6896 234.756 29.9382 234.589 30.2472C234.426 30.5526 234.342 30.8881 234.339 31.2539V32.3885C234.339 32.8643 234.426 33.2727 234.6 33.6136C234.774 33.951 235.017 34.2102 235.329 34.3913C235.642 34.5689 236.008 34.6577 236.427 34.6577C236.707 34.6577 236.961 34.6186 237.188 34.5405C237.416 34.4588 237.613 34.3398 237.78 34.1836C237.947 34.0273 238.073 33.8338 238.158 33.603L239.958 33.8054C239.845 34.2812 239.628 34.6967 239.308 35.0518C238.992 35.4034 238.588 35.6768 238.094 35.8722C237.6 36.0639 237.036 36.1598 236.4 36.1598ZM241.669 39.0682V27.8182H243.566V29.1712H243.678C243.777 28.9723 243.917 28.761 244.098 28.5373C244.28 28.31 244.525 28.1165 244.834 27.9567C245.142 27.7933 245.537 27.7116 246.016 27.7116C246.648 27.7116 247.218 27.8732 247.726 28.1964C248.237 28.516 248.642 28.9901 248.94 29.6186C249.242 30.2436 249.393 31.0107 249.393 31.9197C249.393 32.8182 249.246 33.5817 248.951 34.2102C248.656 34.8388 248.255 35.3182 247.747 35.6484C247.239 35.9787 246.664 36.1438 246.021 36.1438C245.553 36.1438 245.164 36.0657 244.855 35.9094C244.546 35.7532 244.297 35.565 244.109 35.3448C243.924 35.1211 243.781 34.9098 243.678 34.7109H243.598V39.0682H241.669ZM243.56 31.9091C243.56 32.4382 243.635 32.9016 243.784 33.2994C243.937 33.6971 244.155 34.0078 244.439 34.2315C244.727 34.4517 245.075 34.5618 245.483 34.5618C245.91 34.5618 246.266 34.4482 246.554 34.2209C246.842 33.9901 247.058 33.6758 247.204 33.2781C247.353 32.8768 247.428 32.4205 247.428 31.9091C247.428 31.4013 247.355 30.9503 247.209 30.5561C247.064 30.1619 246.847 29.853 246.559 29.6293C246.272 29.4055 245.913 29.2937 245.483 29.2937C245.071 29.2937 244.722 29.402 244.434 29.6186C244.146 29.8352 243.928 30.1388 243.779 30.5295C243.633 30.9201 243.56 31.38 243.56 31.9091Z" fill="white" fill-opacity="0.88"/>
<path d="M52.6388 102.21V95.4176H53.8065C54.1985 95.1051 54.565 94.6648 54.9059 94.0966C55.2468 93.5284 55.5366 92.75 55.7752 91.7614C56.0138 90.7727 56.1786 89.4943 56.2695 87.9261L56.7298 80.5455H67.886V95.4176H69.8292V102.193H66.7951V98H55.6729V102.21H52.6388ZM57.4883 95.4176H64.8519V83.196H59.5763L59.3036 87.9261C59.2298 89.1136 59.1104 90.1761 58.9457 91.1136C58.7809 92.0511 58.5735 92.8778 58.3235 93.5938C58.0735 94.304 57.7951 94.9119 57.4883 95.4176ZM77.979 98.2557C76.7006 98.2557 75.5927 97.9744 74.6552 97.4119C73.7177 96.8494 72.9904 96.0625 72.4734 95.0511C71.962 94.0398 71.7063 92.858 71.7063 91.5057C71.7063 90.1534 71.962 88.9687 72.4734 87.9517C72.9904 86.9347 73.7177 86.1449 74.6552 85.5824C75.5927 85.0199 76.7006 84.7386 77.979 84.7386C79.2575 84.7386 80.3654 85.0199 81.3029 85.5824C82.2404 86.1449 82.9648 86.9347 83.4762 87.9517C83.9933 88.9687 84.2518 90.1534 84.2518 91.5057C84.2518 92.858 83.9933 94.0398 83.4762 95.0511C82.9648 96.0625 82.2404 96.8494 81.3029 97.4119C80.3654 97.9744 79.2575 98.2557 77.979 98.2557ZM77.9961 95.7841C78.6893 95.7841 79.2688 95.5937 79.7347 95.2131C80.2006 94.8267 80.5472 94.3097 80.7745 93.6619C81.0075 93.0142 81.1239 92.2926 81.1239 91.4972C81.1239 90.696 81.0075 89.9716 80.7745 89.3239C80.5472 88.6705 80.2006 88.1506 79.7347 87.7642C79.2688 87.3778 78.6893 87.1847 77.9961 87.1847C77.2859 87.1847 76.695 87.3778 76.2234 87.7642C75.7575 88.1506 75.408 88.6705 75.1751 89.3239C74.9478 89.9716 74.8342 90.696 74.8342 91.4972C74.8342 92.2926 74.9478 93.0142 75.1751 93.6619C75.408 94.3097 75.7575 94.8267 76.2234 95.2131C76.695 95.5937 77.2859 95.7841 77.9961 95.7841ZM92.5806 98.2557C91.2738 98.2557 90.1516 97.9688 89.2141 97.3949C88.2823 96.821 87.5636 96.0284 87.0579 95.017C86.5579 94 86.3079 92.8295 86.3079 91.5057C86.3079 90.1761 86.5636 89.0028 87.0749 87.9858C87.5863 86.9631 88.3079 86.1676 89.2397 85.5994C90.1772 85.0256 91.2852 84.7386 92.5636 84.7386C93.6261 84.7386 94.5664 84.9347 95.3846 85.3267C96.2085 85.7131 96.8647 86.2614 97.3533 86.9716C97.842 87.6761 98.1204 88.5 98.1886 89.4432H95.2397C95.1204 88.8125 94.8363 88.2869 94.3874 87.8665C93.9442 87.4403 93.3505 87.2273 92.6062 87.2273C91.9755 87.2273 91.4215 87.3977 90.9442 87.7386C90.467 88.0739 90.0948 88.5568 89.8278 89.1875C89.5664 89.8182 89.4357 90.5739 89.4357 91.4545C89.4357 92.3466 89.5664 93.1136 89.8278 93.7557C90.0891 94.392 90.4556 94.8835 90.9272 95.2301C91.4045 95.571 91.9641 95.7415 92.6062 95.7415C93.0607 95.7415 93.467 95.6562 93.8249 95.4858C94.1886 95.3097 94.4925 95.0568 94.7369 94.7273C94.9812 94.3977 95.1488 93.9972 95.2397 93.5256H98.1886C98.1147 94.4517 97.842 95.2727 97.3704 95.9886C96.8988 96.6989 96.2567 97.2557 95.4442 97.6591C94.6317 98.0568 93.6772 98.2557 92.5806 98.2557ZM99.7717 87.4403V84.9091H111.226V87.4403H106.99V98H104.007V87.4403H99.7717ZM115.6 102.909C115.18 102.909 114.791 102.875 114.433 102.807C114.081 102.744 113.799 102.67 113.589 102.585L114.305 100.182C114.754 100.313 115.154 100.375 115.507 100.369C115.859 100.364 116.169 100.253 116.436 100.037C116.708 99.8267 116.939 99.4744 117.126 98.9801L117.39 98.2727L112.643 84.9091H115.916L118.933 94.7955H119.069L122.095 84.9091H125.376L120.135 99.5852C119.89 100.278 119.566 100.872 119.163 101.366C118.76 101.866 118.265 102.247 117.68 102.509C117.1 102.776 116.407 102.909 115.6 102.909ZM127.511 98V84.9091H138.565V98H135.591V87.4403H130.46V98H127.511ZM150.729 90.1761V92.7074H143.757V90.1761H150.729ZM144.712 84.9091V98H141.738V84.9091H144.712ZM152.749 84.9091V98H149.783V84.9091H152.749ZM161.581 98.2557C160.302 98.2557 159.194 97.9744 158.257 97.4119C157.319 96.8494 156.592 96.0625 156.075 95.0511C155.564 94.0398 155.308 92.858 155.308 91.5057C155.308 90.1534 155.564 88.9687 156.075 87.9517C156.592 86.9347 157.319 86.1449 158.257 85.5824C159.194 85.0199 160.302 84.7386 161.581 84.7386C162.859 84.7386 163.967 85.0199 164.904 85.5824C165.842 86.1449 166.566 86.9347 167.078 87.9517C167.595 88.9687 167.853 90.1534 167.853 91.5057C167.853 92.858 167.595 94.0398 167.078 95.0511C166.566 96.0625 165.842 96.8494 164.904 97.4119C163.967 97.9744 162.859 98.2557 161.581 98.2557ZM161.598 95.7841C162.291 95.7841 162.87 95.5937 163.336 95.2131C163.802 94.8267 164.149 94.3097 164.376 93.6619C164.609 93.0142 164.725 92.2926 164.725 91.4972C164.725 90.696 164.609 89.9716 164.376 89.3239C164.149 88.6705 163.802 88.1506 163.336 87.7642C162.87 87.3778 162.291 87.1847 161.598 87.1847C160.887 87.1847 160.297 87.3778 159.825 87.7642C159.359 88.1506 159.01 88.6705 158.777 89.3239C158.549 89.9716 158.436 90.696 158.436 91.4972C158.436 92.2926 158.549 93.0142 158.777 93.6619C159.01 94.3097 159.359 94.8267 159.825 95.2131C160.297 95.5937 160.887 95.7841 161.598 95.7841ZM182.135 98.2557C180.857 98.2557 179.749 97.9744 178.811 97.4119C177.874 96.8494 177.147 96.0625 176.63 95.0511C176.118 94.0398 175.863 92.858 175.863 91.5057C175.863 90.1534 176.118 88.9687 176.63 87.9517C177.147 86.9347 177.874 86.1449 178.811 85.5824C179.749 85.0199 180.857 84.7386 182.135 84.7386C183.414 84.7386 184.522 85.0199 185.459 85.5824C186.397 86.1449 187.121 86.9347 187.632 87.9517C188.15 88.9687 188.408 90.1534 188.408 91.5057C188.408 92.858 188.15 94.0398 187.632 95.0511C187.121 96.0625 186.397 96.8494 185.459 97.4119C184.522 97.9744 183.414 98.2557 182.135 98.2557ZM182.152 95.7841C182.846 95.7841 183.425 95.5937 183.891 95.2131C184.357 94.8267 184.703 94.3097 184.931 93.6619C185.164 93.0142 185.28 92.2926 185.28 91.4972C185.28 90.696 185.164 89.9716 184.931 89.3239C184.703 88.6705 184.357 88.1506 183.891 87.7642C183.425 87.3778 182.846 87.1847 182.152 87.1847C181.442 87.1847 180.851 87.3778 180.38 87.7642C179.914 88.1506 179.564 88.6705 179.331 89.3239C179.104 89.9716 178.99 90.696 178.99 91.4972C178.99 92.2926 179.104 93.0142 179.331 93.6619C179.564 94.3097 179.914 94.8267 180.38 95.2131C180.851 95.5937 181.442 95.7841 182.152 95.7841ZM201.518 80.0682L202.592 82.0625C202.211 82.392 201.785 82.6307 201.314 82.7784C200.842 82.9261 200.288 83.0227 199.652 83.0682C199.021 83.108 198.271 83.1364 197.402 83.1534C196.424 83.1761 195.626 83.3608 195.007 83.7074C194.387 84.054 193.913 84.5795 193.583 85.2841C193.254 85.983 193.038 86.875 192.936 87.9602H193.081C193.49 87.1591 194.064 86.5483 194.802 86.1278C195.541 85.7074 196.407 85.4972 197.402 85.4972C198.487 85.4972 199.444 85.7415 200.274 86.2301C201.109 86.7131 201.76 87.4148 202.225 88.3352C202.697 89.2557 202.933 90.3693 202.933 91.6761C202.933 93.0227 202.68 94.1903 202.174 95.179C201.669 96.1619 200.95 96.9205 200.018 97.4545C199.092 97.9886 197.993 98.2557 196.72 98.2557C195.453 98.2557 194.35 97.9801 193.413 97.429C192.481 96.8722 191.76 96.0511 191.248 94.9659C190.743 93.875 190.49 92.5312 190.49 90.9347V89.7585C190.49 86.679 191.064 84.3807 192.211 82.8636C193.359 81.3466 195.061 80.5739 197.316 80.5455C197.987 80.5341 198.586 80.5312 199.115 80.5369C199.649 80.5426 200.115 80.517 200.512 80.4602C200.91 80.4034 201.245 80.2727 201.518 80.0682ZM196.737 95.7841C197.368 95.7841 197.913 95.6222 198.373 95.2983C198.833 94.9687 199.186 94.5028 199.43 93.9006C199.68 93.2983 199.805 92.5852 199.805 91.7614C199.805 90.9489 199.68 90.2585 199.43 89.6903C199.18 89.1165 198.825 88.679 198.365 88.3778C197.904 88.0767 197.356 87.9261 196.72 87.9261C196.243 87.9261 195.814 88.0114 195.433 88.1818C195.052 88.3523 194.728 88.6023 194.461 88.9318C194.194 89.2614 193.99 89.6619 193.848 90.1335C193.706 90.6051 193.629 91.1477 193.618 91.7614C193.618 92.9943 193.896 93.9744 194.453 94.7017C195.01 95.4233 195.771 95.7841 196.737 95.7841ZM214.549 90.1761V92.7074H207.578V90.1761H214.549ZM208.532 84.9091V98H205.558V84.9091H208.532ZM216.569 84.9091V98H213.603V84.9091H216.569ZM225.401 98.2557C224.123 98.2557 223.015 97.9744 222.077 97.4119C221.14 96.8494 220.412 96.0625 219.895 95.0511C219.384 94.0398 219.128 92.858 219.128 91.5057C219.128 90.1534 219.384 88.9687 219.895 87.9517C220.412 86.9347 221.14 86.1449 222.077 85.5824C223.015 85.0199 224.123 84.7386 225.401 84.7386C226.679 84.7386 227.787 85.0199 228.725 85.5824C229.662 86.1449 230.387 86.9347 230.898 87.9517C231.415 88.9687 231.674 90.1534 231.674 91.5057C231.674 92.858 231.415 94.0398 230.898 95.0511C230.387 96.0625 229.662 96.8494 228.725 97.4119C227.787 97.9744 226.679 98.2557 225.401 98.2557ZM225.418 95.7841C226.111 95.7841 226.691 95.5937 227.157 95.2131C227.623 94.8267 227.969 94.3097 228.196 93.6619C228.429 93.0142 228.546 92.2926 228.546 91.4972C228.546 90.696 228.429 89.9716 228.196 89.3239C227.969 88.6705 227.623 88.1506 227.157 87.7642C226.691 87.3778 226.111 87.1847 225.418 87.1847C224.708 87.1847 224.117 87.3778 223.645 87.7642C223.179 88.1506 222.83 88.6705 222.597 89.3239C222.37 89.9716 222.256 90.696 222.256 91.4972C222.256 92.2926 222.37 93.0142 222.597 93.6619C222.83 94.3097 223.179 94.8267 223.645 95.2131C224.117 95.5937 224.708 95.7841 225.418 95.7841ZM234.292 98V84.9091H239.789C241.341 84.9091 242.565 85.2187 243.463 85.8381C244.366 86.4574 244.818 87.321 244.818 88.429C244.818 89.1619 244.562 89.7614 244.051 90.2273C243.545 90.6875 242.855 90.9972 241.98 91.1562C242.667 91.2131 243.27 91.3864 243.787 91.6761C244.309 91.9659 244.718 92.3466 245.014 92.8182C245.309 93.2898 245.457 93.8324 245.457 94.446C245.457 95.1676 245.267 95.7955 244.886 96.3295C244.511 96.858 243.963 97.2699 243.241 97.5653C242.525 97.8551 241.656 98 240.633 98H234.292ZM237.181 95.571H240.633C241.201 95.571 241.647 95.4375 241.971 95.1705C242.295 94.8977 242.457 94.5284 242.457 94.0625C242.457 93.5227 242.295 93.0994 241.971 92.7926C241.647 92.4801 241.201 92.3239 240.633 92.3239H237.181V95.571ZM237.181 90.3295H239.849C240.27 90.3295 240.63 90.2699 240.931 90.1506C241.233 90.0256 241.463 89.8523 241.622 89.6307C241.781 89.4034 241.86 89.1335 241.86 88.821C241.86 88.3722 241.676 88.0199 241.306 87.7642C240.943 87.5085 240.437 87.3807 239.789 87.3807H237.181V90.3295ZM247.1 98L247.083 95.4602H247.534C247.875 95.4602 248.162 95.3835 248.395 95.2301C248.628 95.0767 248.821 94.821 248.975 94.4631C249.128 94.0994 249.248 93.6108 249.333 92.9972C249.418 92.3835 249.478 91.6193 249.512 90.7045L249.742 84.9091H259.287V98H256.304V87.4403H252.546L252.341 91.6591C252.29 92.75 252.168 93.696 251.975 94.4972C251.787 95.2926 251.52 95.9489 251.174 96.4659C250.833 96.983 250.404 97.3693 249.887 97.625C249.37 97.875 248.759 98 248.054 98H247.1ZM268.189 98.2557C266.877 98.2557 265.743 97.983 264.789 97.4375C263.84 96.8864 263.11 96.108 262.598 95.1023C262.087 94.0909 261.831 92.9006 261.831 91.5312C261.831 90.1847 262.087 89.0028 262.598 87.9858C263.115 86.9631 263.837 86.1676 264.763 85.5994C265.689 85.0256 266.777 84.7386 268.027 84.7386C268.834 84.7386 269.596 84.8693 270.311 85.1307C271.033 85.3864 271.669 85.7841 272.221 86.3239C272.777 86.8636 273.215 87.5511 273.533 88.3864C273.851 89.2159 274.01 90.2045 274.01 91.3523V92.2983H263.28V90.2188H271.053C271.047 89.6278 270.919 89.1023 270.669 88.642C270.419 88.1761 270.07 87.8097 269.621 87.5426C269.178 87.2756 268.661 87.142 268.07 87.142C267.439 87.142 266.885 87.2955 266.408 87.6023C265.931 87.9034 265.559 88.3011 265.292 88.7955C265.03 89.2841 264.897 89.821 264.891 90.4062V92.2216C264.891 92.983 265.03 93.6364 265.309 94.1818C265.587 94.7216 265.976 95.1364 266.476 95.4261C266.976 95.7102 267.561 95.8523 268.232 95.8523C268.681 95.8523 269.087 95.7898 269.451 95.6648C269.814 95.5341 270.13 95.3438 270.397 95.0938C270.664 94.8438 270.865 94.5341 271.002 94.1648L273.882 94.4886C273.701 95.25 273.354 95.9148 272.843 96.483C272.337 97.0455 271.689 97.483 270.9 97.7955C270.11 98.1023 269.206 98.2557 268.189 98.2557ZM285.612 90.1761V92.7074H278.64V90.1761H285.612ZM279.595 84.9091V98H276.62V84.9091H279.595ZM287.632 84.9091V98H284.666V84.9091H287.632ZM293.728 93.8239L298.969 84.9091H302.14V98H299.157V89.0767L293.932 98H290.753V84.9091H293.728V93.8239ZM311.103 98.2557C309.791 98.2557 308.657 97.983 307.703 97.4375C306.754 96.8864 306.024 96.108 305.512 95.1023C305.001 94.0909 304.745 92.9006 304.745 91.5312C304.745 90.1847 305.001 89.0028 305.512 87.9858C306.029 86.9631 306.751 86.1676 307.677 85.5994C308.603 85.0256 309.691 84.7386 310.941 84.7386C311.748 84.7386 312.51 84.8693 313.225 85.1307C313.947 85.3864 314.583 85.7841 315.135 86.3239C315.691 86.8636 316.129 87.5511 316.447 88.3864C316.765 89.2159 316.924 90.2045 316.924 91.3523V92.2983H306.194V90.2188H313.967C313.961 89.6278 313.833 89.1023 313.583 88.642C313.333 88.1761 312.984 87.8097 312.535 87.5426C312.092 87.2756 311.575 87.142 310.984 87.142C310.353 87.142 309.799 87.2955 309.322 87.6023C308.845 87.9034 308.473 88.3011 308.206 88.7955C307.944 89.2841 307.811 89.821 307.805 90.4062V92.2216C307.805 92.983 307.944 93.6364 308.223 94.1818C308.501 94.7216 308.89 95.1364 309.39 95.4261C309.89 95.7102 310.475 95.8523 311.146 95.8523C311.595 95.8523 312.001 95.7898 312.365 95.6648C312.728 95.5341 313.044 95.3438 313.311 95.0938C313.578 94.8438 313.779 94.5341 313.916 94.1648L316.797 94.4886C316.615 95.25 316.268 95.9148 315.757 96.483C315.251 97.0455 314.603 97.483 313.814 97.7955C313.024 98.1023 312.12 98.2557 311.103 98.2557Z" fill="white"/>
</svg>
